<?xml version="1.0" encoding="iso-8859-1"?>
<!-- Generator: Adobe Illustrator 19.0.0, SVG Export Plug-In . SVG Version: 6.00 Build 0)  -->
<svg version="1.1" id="Layer_1" xmlns="http://www.w3.org/2000/svg" xmlns:xlink="http://www.w3.org/1999/xlink" x="0px" y="0px"
	 viewBox="0 0 512 512" style="enable-background:new 0 0 512 512;" xml:space="preserve">
<g transform="translate(0 1)">
	<path style="fill:#FFE100;" d="M454.827,434.2H72.533c-24.747,0-38.4-15.36-38.4-34.133V109.933
		c0-18.773,13.653-34.133,30.72-34.133h382.293c17.067,0,30.72,15.36,30.72,34.133v290.133
		C477.867,418.84,464.213,434.2,454.827,434.2"/>
	<path style="fill:#FFFFFF;" d="M34.133,400.067V109.933c0-18.773,13.653-34.133,30.72-34.133H42.667
		c-18.773,0-34.133,15.36-34.133,34.133v290.133c0,18.773,15.36,34.133,42.667,34.133h21.333
		C47.787,434.2,34.133,418.84,34.133,400.067"/>
	<path style="fill:#FFA800;" d="M469.333,75.8h-22.187c17.067,0,30.72,15.36,30.72,34.133v290.133
		c0,18.773-13.653,34.133-23.04,34.133h23.04c10.24,0,25.6-15.36,25.6-34.133V109.933C503.467,91.16,488.107,75.8,469.333,75.8"/>
	<polygon style="fill:#63D3FD;" points="34.133,195.267 477.867,195.267 477.867,127 34.133,127 	"/>
	<polygon style="fill:#3DB9F9;" points="477.867,195.267 503.467,195.267 503.467,127 477.867,127 	"/>
	<polygon style="fill:#FFFFFF;" points="8.533,195.267 34.133,195.267 34.133,127 8.533,127 	"/>
	<polygon style="fill:#63D3FD;" points="298.667,383 426.667,383 426.667,297.667 298.667,297.667 	"/>
	<polygon style="fill:#3DB9F9;" points="426.667,383 452.267,383 452.267,297.667 426.667,297.667 	"/>
	<path d="M477.867,442.733H51.2c-29.867,0-51.2-17.92-51.2-42.667V357.4c0-5.12,3.413-8.533,8.533-8.533s8.533,3.413,8.533,8.533
		v42.667c0,15.36,13.653,25.6,34.133,25.6h426.667c5.12,0,17.067-11.093,17.067-25.6V109.933c0-14.507-11.093-25.6-25.6-25.6H42.667
		c-14.507,0-25.6,11.093-25.6,25.6v179.2c0,5.12-3.413,8.533-8.533,8.533S0,294.253,0,289.133v-179.2
		C0,86.04,18.773,67.267,42.667,67.267h426.667c23.893,0,42.667,18.773,42.667,42.667v290.133
		C512,423.107,493.227,442.733,477.867,442.733z"/>
	<path d="M17.067,323.267c0-5.12-3.413-8.533-8.533-8.533S0,318.147,0,323.267c0,5.12,3.413,8.533,8.533,8.533
		S17.067,328.387,17.067,323.267"/>
	<path d="M503.467,203.8H8.533c-5.12,0-8.533-3.413-8.533-8.533V127c0-5.12,3.413-8.533,8.533-8.533h494.933
		c5.12,0,8.533,3.413,8.533,8.533v68.267C512,200.387,508.587,203.8,503.467,203.8z M17.067,186.733h477.867v-51.2H17.067V186.733z"
		/>
	<path d="M452.267,391.533h-153.6c-5.12,0-8.533-3.413-8.533-8.533v-85.333c0-5.12,3.413-8.533,8.533-8.533h153.6
		c5.12,0,8.533,3.413,8.533,8.533V383C460.8,388.12,457.387,391.533,452.267,391.533z M307.2,374.467h136.533V306.2H307.2V374.467z"
		/>
	<path d="M128,263.533H51.2c-5.12,0-8.533-3.413-8.533-8.533s3.413-8.533,8.533-8.533H128c5.12,0,8.533,3.413,8.533,8.533
		S132.267,263.533,128,263.533z"/>
	<path d="M238.933,263.533h-76.8c-5.12,0-8.533-3.413-8.533-8.533s3.413-8.533,8.533-8.533h76.8c5.12,0,8.533,3.413,8.533,8.533
		S244.053,263.533,238.933,263.533z"/>
	<path d="M179.2,297.667h-128c-5.12,0-8.533-3.413-8.533-8.533c0-5.12,3.413-8.533,8.533-8.533h128c5.12,0,8.533,3.413,8.533,8.533
		C187.733,294.253,184.32,297.667,179.2,297.667z"/>
	<path d="M238.933,297.667h-25.6c-5.12,0-8.533-3.413-8.533-8.533c0-5.12,3.413-8.533,8.533-8.533h25.6
		c5.12,0,8.533,3.413,8.533,8.533C247.467,294.253,244.053,297.667,238.933,297.667z"/>
</g>
<g>
</g>
<g>
</g>
<g>
</g>
<g>
</g>
<g>
</g>
<g>
</g>
<g>
</g>
<g>
</g>
<g>
</g>
<g>
</g>
<g>
</g>
<g>
</g>
<g>
</g>
<g>
</g>
<g>
</g>
</svg>
